<svg xmlns="http://www.w3.org/2000/svg" id="Layer_1" data-name="Layer 1" viewBox="0 0 774.52 198.35"><defs><style>.cls-1{fill:#01438f}</style></defs><path d="M99.17 174.37c0-52.62 28.88-95.29 64.5-95.29 12.71 0 24.55 5.43 34.54 14.8a99.23 99.23 0 0 0-135.52-87 173.32 173.32 0 0 1 19.63-1.1c38.31 0 69.36 12 69.36 26.9s-31.05 26.9-69.36 26.9c-29.36 0-54.46-7.08-64.58-17.07A99.18 99.18 0 0 0 99.17 198.3h2.06a138.82 138.82 0 0 1-2.06-23.93ZM267.72 41.01v27.8q0 9.09-4.79 13.58t-14.43 4.48q-9.79 0-14.58-4.48t-4.79-13.58v-27.8h9.49v26.3q0 5.52 2.44 8.31t7.29 2.79q4.88 0 7.38-2.81t2.5-8.3V41ZM276.84 99.29V55.75h8.33v4.94a11.91 11.91 0 0 1 4.2-4.47 11.09 11.09 0 0 1 5.78-1.48q6.38 0 10 4.23t3.6 11.79q0 7.29-3.63 11.7a11.77 11.77 0 0 1-9.55 4.41 12.72 12.72 0 0 1-6.06-1.33 11.38 11.38 0 0 1-4.26-4.16q.15 1.13.23 2.46t.08 3v12.42Zm7.93-28.62a9.21 9.21 0 0 0 2 6.32 8 8 0 0 0 11.14 0 9.21 9.21 0 0 0 2-6.32 9.41 9.41 0 0 0-2-6.39 7 7 0 0 0-5.6-2.33 6.87 6.87 0 0 0-5.48 2.35 9.43 9.43 0 0 0-2.05 6.37ZM315.35 99.29V55.75h8.33v4.94a11.91 11.91 0 0 1 4.2-4.47 11.09 11.09 0 0 1 5.78-1.48q6.38 0 10 4.23t3.6 11.79q0 7.29-3.63 11.7a11.77 11.77 0 0 1-9.55 4.41 12.72 12.72 0 0 1-6.06-1.33 11.39 11.39 0 0 1-4.26-4.16q.15 1.13.23 2.46t.08 3v12.42Zm7.93-28.62a9.21 9.21 0 0 0 2 6.32 8 8 0 0 0 11.14 0 9.21 9.21 0 0 0 2-6.32 9.41 9.41 0 0 0-2-6.39 7 7 0 0 0-5.6-2.33 6.87 6.87 0 0 0-5.48 2.35 9.42 9.42 0 0 0-2.06 6.37ZM350.92 80.43l6.68-3.45a4.17 4.17 0 0 0 1.8 2.75 7.31 7.31 0 0 0 7 .23 2.43 2.43 0 0 0 1.22-2.15q0-2.17-4.33-3.63-1.34-.46-2.14-.76-5.28-2-7.31-4a6.73 6.73 0 0 1-2-5 8.62 8.62 0 0 1 3.45-7.11 16.25 16.25 0 0 1 16.06-1.1 9.69 9.69 0 0 1 4.29 4.58l-6.38 3.17a4.6 4.6 0 0 0-1.8-2.55 5.58 5.58 0 0 0-3.2-.87 5.51 5.51 0 0 0-3.11.79 2.4 2.4 0 0 0-1.19 2.07q0 2.23 5.92 4.15l1.07.34q4.91 1.62 7 3.77a7.57 7.57 0 0 1 2.07 5.48 8.43 8.43 0 0 1-3.45 7.08q-3.45 2.62-9.31 2.62a16.82 16.82 0 0 1-7.92-1.72 8.7 8.7 0 0 1-4.42-4.69ZM412.34 85.68h-8.42l.12-4.3a11.38 11.38 0 0 1-4.26 4.16 12.72 12.72 0 0 1-6.06 1.33 11.82 11.82 0 0 1-9.6-4.42q-3.65-4.42-3.65-11.69 0-7.57 3.59-11.79t10-4.23a11.23 11.23 0 0 1 5.84 1.5 12 12 0 0 1 4.23 4.45v-4.94h8.24Zm-7.93-15a9.43 9.43 0 0 0-2-6.38 6.87 6.87 0 0 0-5.48-2.35 7 7 0 0 0-5.57 2.33 9.41 9.41 0 0 0-2 6.39 9.21 9.21 0 0 0 2 6.32 8 8 0 0 0 11.12 0 9.26 9.26 0 0 0 1.93-6.32ZM420.86 85.68V38.39h8.66v47.29ZM468.33 85.68h-8.42l.12-4.3a11.38 11.38 0 0 1-4.26 4.16 12.72 12.72 0 0 1-6.06 1.33 11.82 11.82 0 0 1-9.6-4.42q-3.65-4.42-3.65-11.69 0-7.57 3.59-11.79t10-4.23a11.23 11.23 0 0 1 5.84 1.5 12 12 0 0 1 4.23 4.45v-4.94h8.24Zm-7.93-15a9.43 9.43 0 0 0-2-6.38 6.87 6.87 0 0 0-5.48-2.35 7 7 0 0 0-5.57 2.33 9.41 9.41 0 0 0-2 6.39 9.21 9.21 0 0 0 2 6.32 8 8 0 0 0 11.12 0 9.26 9.26 0 0 0 1.93-6.32ZM496.77 85.68V62.55h-4.18v-6.8h4.18V45.8h8.7v9.95h4.18v6.8h-4.18v23.13ZM544.24 72.87h-22.48a7.82 7.82 0 0 0 2.35 4.84 7.29 7.29 0 0 0 5 1.6 8.63 8.63 0 0 0 4.1-.92 7.6 7.6 0 0 0 2.88-2.78l7 3.51a16.18 16.18 0 0 1-5.92 5.84 17 17 0 0 1-8.27 1.91q-7.26 0-11.5-4.33t-4.24-11.66a15.9 15.9 0 0 1 4.44-11.59 15.2 15.2 0 0 1 11.37-4.55q7.14 0 11.29 4.26t4.15 11.61v.87c0 .32-.1.78-.17 1.39Zm-8.6-5.25a6.49 6.49 0 0 0-2.06-4.29 6.88 6.88 0 0 0-4.62-1.45 7.13 7.13 0 0 0-4.68 1.45 6.82 6.82 0 0 0-2.24 4.29ZM550.84 38.39h8.7v30.6l11.11-13.24h10.4l-12 13.24 13.24 16.69h-10.77l-12-15.87v15.87h-8.7ZM586.14 85.68V55.75h8.51v4.7a15.87 15.87 0 0 1 5-4.32 12.92 12.92 0 0 1 6-1.39 13.05 13.05 0 0 1 5.84 1.17 8.7 8.7 0 0 1 3.74 3.58 9.63 9.63 0 0 1 1 2.82 30 30 0 0 1 .29 4.93v18.43h-8.7v-14.8q0-5.52-1.28-7.29t-4.39-1.77a7.36 7.36 0 0 0-3.31.75 6.86 6.86 0 0 0-2.52 2.12 6.93 6.93 0 0 0-1.14 2.44 18.24 18.24 0 0 0-.35 4.18v14.37ZM656.25 70.82a15.33 15.33 0 0 1-4.71 11.47 18 18 0 0 1-24 0 16.24 16.24 0 0 1 0-22.94 18 18 0 0 1 24-.06 15.36 15.36 0 0 1 4.71 11.53Zm-8.85-.06a8 8 0 0 0-2.14-5.84 7.66 7.66 0 0 0-5.74-2.18 7.58 7.58 0 0 0-5.71 2.17 9.2 9.2 0 0 0 0 11.72 7.53 7.53 0 0 0 5.71 2.2 7.64 7.64 0 0 0 5.72-2.2 8 8 0 0 0 2.16-5.87ZM663.15 85.68V38.39h8.66v47.29ZM712.12 70.82a15.33 15.33 0 0 1-4.71 11.47 18 18 0 0 1-24 0 16.24 16.24 0 0 1 0-22.94 18 18 0 0 1 24-.06 15.37 15.37 0 0 1 4.71 11.53Zm-8.85-.06a8 8 0 0 0-2.13-5.84 7.67 7.67 0 0 0-5.74-2.18 7.59 7.59 0 0 0-5.71 2.17 9.2 9.2 0 0 0 0 11.72 7.54 7.54 0 0 0 5.71 2.2 7.65 7.65 0 0 0 5.72-2.2 8 8 0 0 0 2.15-5.87ZM748.61 85.19a26.75 26.75 0 0 1-.56 6.65 7.84 7.84 0 0 1-1.94 3.33 11.66 11.66 0 0 1-5 3.11 23.85 23.85 0 0 1-7.41 1q-7.29 0-11.08-2.32a8.47 8.47 0 0 1-4.12-7h9.55a3.28 3.28 0 0 0 1.59 2.56 8 8 0 0 0 4.06.82q3.54 0 5.11-1.83t1.57-6.1V81.1a11.49 11.49 0 0 1-4.2 4.12 11.93 11.93 0 0 1-5.81 1.34 12.31 12.31 0 0 1-9.86-4.32q-3.69-4.32-3.69-11.64t3.6-11.66q3.6-4.21 9.95-4.21a11.17 11.17 0 0 1 5.81 1.51 12.11 12.11 0 0 1 4.26 4.44v-4.94h8.18Zm-7.87-14.52a9.14 9.14 0 0 0-2-6.25 6.94 6.94 0 0 0-5.49-2.29 7.07 7.07 0 0 0-5.58 2.27 9.13 9.13 0 0 0-2 6.27 9 9 0 0 0 2 6.22 8.06 8.06 0 0 0 11.12 0 9 9 0 0 0 1.95-6.22ZM757.43 74.64v-7.69h17.09v7.69ZM260.05 145.81a15.33 15.33 0 0 1-4.71 11.47 18 18 0 0 1-24 0 16.24 16.24 0 0 1 0-22.94 18 18 0 0 1 24-.06 15.36 15.36 0 0 1 4.71 11.53Zm-8.85-.06a8 8 0 0 0-2.15-5.85 8.61 8.61 0 0 0-11.44 0 9.2 9.2 0 0 0 0 11.72 7.53 7.53 0 0 0 5.71 2.2 7.65 7.65 0 0 0 5.72-2.2 8 8 0 0 0 2.14-5.87ZM289.59 159.78a13.9 13.9 0 0 1-3.72 1.57 17.08 17.08 0 0 1-4.27.5 15.52 15.52 0 0 1-11.53-4.5 15.91 15.91 0 0 1-4.45-11.7 15.46 15.46 0 0 1 4.43-11.48 15.81 15.81 0 0 1 11.62-4.44 18.18 18.18 0 0 1 4.27.46 13.74 13.74 0 0 1 3.6 1.43l-.06 8.73a9.69 9.69 0 0 0-7-2.93 7.83 7.83 0 0 0-5.86 2.24 8.25 8.25 0 0 0 6.1 14.2 8.74 8.74 0 0 0 3.74-.76 8.94 8.94 0 0 0 3-2.38ZM297.05 160.67v-47.3h8.51v16.81q0 1.4-.09 2.79t-.27 2.7a18.62 18.62 0 0 1 5.39-4.55 12.87 12.87 0 0 1 6-1.4 13.12 13.12 0 0 1 5.87 1.19 8.43 8.43 0 0 1 3.71 3.57 9.63 9.63 0 0 1 1 2.82 29.94 29.94 0 0 1 .29 4.93v18.43h-8.7v-14.8q0-5.52-1.28-7.29t-4.39-1.77a7.36 7.36 0 0 0-3.31.75 6.86 6.86 0 0 0-2.52 2.12 6.93 6.93 0 0 0-1.14 2.44 18.28 18.28 0 0 0-.35 4.18v14.37ZM356.78 160.67v-29.94h8.51v4.7a15.91 15.91 0 0 1 5-4.32 12.92 12.92 0 0 1 6-1.39 13.05 13.05 0 0 1 5.84 1.17 8.7 8.7 0 0 1 3.74 3.59 9.63 9.63 0 0 1 1 2.82 30 30 0 0 1 .29 4.93v18.43h-8.7v-14.8q0-5.52-1.28-7.29t-4.39-1.77a7.36 7.36 0 0 0-3.31.75 6.86 6.86 0 0 0-2.52 2.12 6.93 6.93 0 0 0-1.14 2.44 18.32 18.32 0 0 0-.35 4.18v14.37ZM426.34 160.67h-8.42l.12-4.3a11.38 11.38 0 0 1-4.26 4.16 12.72 12.72 0 0 1-6.06 1.33 11.82 11.82 0 0 1-9.6-4.42q-3.65-4.42-3.65-11.69 0-7.57 3.59-11.79t10-4.23a11.23 11.23 0 0 1 5.84 1.5 12 12 0 0 1 4.23 4.45v-4.94h8.24Zm-7.93-15a9.43 9.43 0 0 0-2-6.38 6.87 6.87 0 0 0-5.48-2.35 7 7 0 0 0-5.57 2.34 9.41 9.41 0 0 0-2 6.39 9.21 9.21 0 0 0 2 6.32 8 8 0 0 0 11.12 0 9.26 9.26 0 0 0 1.92-6.34ZM436.52 160.67v-23.13h-4.18v-6.8h4.18v-9.95h8.7v9.95h4.18v6.8h-4.18v23.13ZM464.21 130.73v15.74q0 4 1.54 5.67t5 1.71q3.45 0 5-1.72t1.56-5.66v-15.74h8.74v15.74q0 7.9-3.69 11.64t-11.44 3.74q-7.9 0-11.61-3.72t-3.71-11.66v-15.74ZM503.72 138.42a13.76 13.76 0 0 1 3.77-6.53 8.87 8.87 0 0 1 6.09-2.17 19.54 19.54 0 0 1 2.71.3l.55.09-1.31 9.34a10.93 10.93 0 0 0-2-.6 10.68 10.68 0 0 0-2.09-.2q-4 0-5.71 2t-1.68 6.84v13.18h-8.7v-29.94h8.57ZM529.05 160.67l-12.17-29.93h10l5.17 15.56q.61 1.89 1 3.51a25.73 25.73 0 0 1 .52 3.17q.37-2.35.73-4a23.91 23.91 0 0 1 .85-3l5.1-15.26h9.8l-12.29 29.93ZM584.05 147.85h-22.53a7.82 7.82 0 0 0 2.35 4.84 7.29 7.29 0 0 0 5 1.6 8.63 8.63 0 0 0 4.1-.92 7.6 7.6 0 0 0 2.88-2.78l7 3.51a16.18 16.18 0 0 1-5.92 5.84 17 17 0 0 1-8.27 1.91q-7.26 0-11.5-4.33t-4.24-11.66a15.9 15.9 0 0 1 4.44-11.59 15.2 15.2 0 0 1 11.37-4.55q7.14 0 11.29 4.26t4.15 11.61v.87c0 .32-.12.78-.12 1.39Zm-8.6-5.25a6.49 6.49 0 0 0-2.06-4.29 6.88 6.88 0 0 0-4.62-1.45 7.13 7.13 0 0 0-4.68 1.45 6.82 6.82 0 0 0-2.24 4.29ZM592.6 160.67v-23.13h-4.18v-6.8h4.18v-9.95h8.7v9.95h4.18v6.8h-4.18v23.13ZM641.78 160.67h-8.42l.12-4.3a11.38 11.38 0 0 1-4.26 4.16 12.72 12.72 0 0 1-6.06 1.33 11.82 11.82 0 0 1-9.6-4.42q-3.65-4.42-3.65-11.69 0-7.57 3.59-11.79t10-4.23a11.23 11.23 0 0 1 5.84 1.5 12 12 0 0 1 4.23 4.45v-4.94h8.24Zm-7.93-15a9.43 9.43 0 0 0-2-6.38 6.87 6.87 0 0 0-5.48-2.35 7 7 0 0 0-5.57 2.34 9.41 9.41 0 0 0-2 6.39 9.21 9.21 0 0 0 2 6.32 8 8 0 0 0 11.12 0 9.26 9.26 0 0 0 1.92-6.34ZM659.28 138.42a13.76 13.76 0 0 1 3.77-6.53 8.87 8.87 0 0 1 6.09-2.17 19.54 19.54 0 0 1 2.71.3l.55.09-1.35 9.35a10.93 10.93 0 0 0-2-.6 10.68 10.68 0 0 0-2.09-.2q-4 0-5.71 2t-1.74 6.79v13.18h-8.7v-29.9h8.57ZM677.27 113.37h8.7v30.6l11.08-13.24h10.43l-12.05 13.24 13.24 16.69h-10.71l-12-15.87v15.87h-8.7ZM743.51 160.67h-8.46l.12-4.3a11.4 11.4 0 0 1-4.26 4.16 12.73 12.73 0 0 1-6.06 1.33 11.82 11.82 0 0 1-9.6-4.42q-3.65-4.42-3.65-11.69 0-7.57 3.58-11.79t10-4.23a11.23 11.23 0 0 1 5.84 1.5 12 12 0 0 1 4.23 4.45v-4.94h8.24Zm-23.16-41a8.08 8.08 0 1 1 2.37 5.74 7.83 7.83 0 0 1-2.37-5.71Zm15.22 26a9.42 9.42 0 0 0-2-6.38 6.87 6.87 0 0 0-5.48-2.35 7 7 0 0 0-5.57 2.34 9.42 9.42 0 0 0-2 6.39 9.2 9.2 0 0 0 2 6.32 8 8 0 0 0 11.12 0 9.26 9.26 0 0 0 1.93-6.34Zm-10.86-26a3.66 3.66 0 0 0 1.08 2.67 3.82 3.82 0 1 0-1.08-2.67ZM761.05 138.42a13.76 13.76 0 0 1 3.77-6.53 8.87 8.87 0 0 1 6.09-2.17 19.54 19.54 0 0 1 2.71.3l.55.09-1.31 9.34a10.93 10.93 0 0 0-2-.6 10.68 10.68 0 0 0-2.09-.2q-4 0-5.71 2t-1.74 6.79v13.18h-8.7v-29.89h8.57Z" class="cls-1"/></svg>